<svg width="860" height="1592" viewBox="0 0 860 1592" fill="none" xmlns="http://www.w3.org/2000/svg">
<path fill-rule="evenodd" clip-rule="evenodd" d="M0.24634 1433C-0.762726 1450.66 20.4091 1530.76 84.8261 1540.12C189.174 1555.29 292.38 1442.79 442.929 1424.96C593.477 1407.13 692.437 1430.14 756.254 1435.51C820.378 1440.9 846.153 1435.61 841.811 1416.21C844.121 1423.4 845.493 1430.48 846.963 1437.4C850.582 1456.83 824.398 1461.45 758.854 1455.29C693.587 1449.16 593.686 1424.91 442.731 1442.45C291.776 1459.99 181.989 1575.66 83.0728 1557.53C29.4394 1547.71 -3.18332 1477.01 0.24634 1433Z" fill="#E0E0E0"/>
<path fill-rule="evenodd" clip-rule="evenodd" d="M5.83026 1396.45C5.7836 1417.12 11.1148 1491.56 85.3681 1508.18C167.916 1526.67 289.488 1411.32 438.378 1392.5C587.268 1373.69 684.647 1395.34 747.43 1400.21C809.534 1405.03 832.538 1399.64 826.345 1380.48C828.847 1387.35 831.244 1394.23 833.643 1401.1C839.738 1420.42 814.447 1425.16 750.738 1419.66C687.535 1414.2 589.54 1391.06 439.714 1409.61C289.888 1428.17 168.53 1547.26 83.9099 1525.27C22.7827 1509.39 -3.54297 1442.49 5.83026 1396.45Z" fill="#E0E0E0"/>
<path fill-rule="evenodd" clip-rule="evenodd" d="M13.9031 1352.49C12.1183 1405.67 20.8814 1461.53 88.9963 1473.76C181.16 1490.3 289.311 1376.81 435.277 1357.38C581.242 1337.94 676.062 1358.59 736.315 1362.75C795.177 1366.81 813.878 1360.84 810.019 1344.33C812.778 1350.12 815.318 1355.62 817.746 1360.98C824.874 1380.24 802.372 1385.14 741.498 1380.28C680.793 1375.44 584.897 1355.63 437.246 1374.76C289.595 1393.89 181.861 1508.6 87.8601 1490.9C1.68932 1474.67 7.24329 1388.51 13.9031 1352.49Z" fill="#E0E0E0"/>
<path fill-rule="evenodd" clip-rule="evenodd" d="M22.8976 1316.58C21.9515 1353.5 20.0466 1426.22 89.4062 1441.4C163.932 1457.7 300.482 1342.23 429.832 1321.99C559.182 1301.75 664.333 1320.43 722.321 1323.14C777.114 1325.7 793.912 1319.9 790.445 1304.44C794.163 1310.8 796.974 1315.92 800.39 1322.45C808.956 1341.49 788.374 1346.11 729.833 1341.78C670.99 1337.43 561.055 1325.41 432.929 1340.52C304.803 1355.63 181.417 1475.09 87.6926 1457.69C20.1097 1445.13 13.7098 1366.11 22.8976 1316.58Z" fill="#E0E0E0"/>
<path fill-rule="evenodd" clip-rule="evenodd" d="M33.1049 1277.5C32.8237 1304.62 22.7808 1388.75 96.431 1409.18C160.17 1426.87 295.616 1315.18 421.09 1290.74C546.563 1266.3 649.119 1286.51 704.526 1286.3C756.614 1286.11 774.668 1285.03 767.5 1268.56C772.397 1275.78 776.582 1282.12 780.653 1289.37C789.072 1303.76 769.248 1305.4 713.954 1306.06C656.13 1306.75 564.559 1287.07 423.679 1308.09C282.799 1329.12 142.043 1468.05 69.3554 1417.48C14.1181 1379.04 29.6215 1298.79 33.1049 1277.5Z" fill="#E0E0E0"/>
<path fill-rule="evenodd" clip-rule="evenodd" d="M48.6759 1235.18C44.3923 1270.97 40.3082 1357.46 98.7874 1371.43C183.231 1391.61 278.421 1280.7 412.114 1258.8C545.806 1236.9 631.858 1252.14 684.567 1251.84C734.559 1251.56 746.837 1243.29 739.965 1227.49C744.515 1233.96 748.329 1239.67 752.784 1246.3C764.955 1265.02 748.168 1272.18 694.483 1270.97C640.105 1269.75 552.191 1254.15 415.83 1275.94C279.471 1297.74 178.256 1411.46 95.1583 1391.12C29.0056 1374.93 37.1247 1270.26 48.6759 1235.18Z" fill="#E0E0E0"/>
<path fill-rule="evenodd" clip-rule="evenodd" d="M69.7675 1188.57C55.5823 1232.71 55.413 1321.55 110.666 1336.84C172.805 1354.02 293.574 1247.66 405.757 1225.02C517.942 1202.39 614.719 1214.79 664.861 1214.56C711.492 1214.36 722.98 1210.75 715.187 1195.52C719.261 1200.64 722.358 1204.56 726.12 1209.7C739.53 1228.36 724.466 1236.7 674.462 1236.17C623.406 1235.62 539.911 1220.05 409.474 1242.17C279.038 1264.29 189.814 1369.18 106.895 1355.34C55.6149 1346.79 37.7457 1247.49 69.7675 1188.57Z" fill="#E0E0E0"/>
<path fill-rule="evenodd" clip-rule="evenodd" d="M88.6082 1151.13C76.1156 1190.84 75.3351 1284.76 123.685 1300.55C186.866 1321.2 277.293 1216.7 393.457 1193.04C509.621 1169.38 590.108 1178.88 635.53 1176.76C677.064 1174.82 685.614 1167.02 677.872 1149.2C682.621 1155.51 688.242 1162.8 693.102 1169.26C705.423 1186.31 697.427 1194.66 653.046 1197.09C606.21 1199.66 520.956 1188.85 396.999 1211.89C273.041 1234.92 192.3 1336.81 117.775 1320.49C70.1007 1310.05 59.5704 1214.03 88.6082 1151.13Z" fill="#E0E0E0"/>
<path fill-rule="evenodd" clip-rule="evenodd" d="M113.745 1108.29C85.0142 1159.57 99.897 1256.51 136.735 1263.25C204.82 1275.71 266.557 1187.12 383.348 1160.03C480.688 1137.45 569.535 1146.45 612.435 1143.13C651.865 1140.07 661.771 1132.67 650.765 1115.27C656.046 1121.85 659.4 1125.83 664.474 1132.43C678.68 1150.44 667.742 1159.41 624.702 1161.69C579.999 1164.06 504.843 1154.49 386.948 1178.23C269.053 1201.97 204.184 1301.85 129.439 1283.38C95.4046 1274.97 70.5956 1175.69 113.745 1108.29Z" fill="#E0E0E0"/>
<path fill-rule="evenodd" clip-rule="evenodd" d="M136.71 1078.53C117.326 1114.54 107.804 1211.21 149.502 1225.16C195.901 1240.68 269.287 1153.14 375.744 1129.83C482.203 1106.52 548.949 1113.8 588.437 1110.53C623.79 1107.61 632.019 1100.1 622.399 1082.37C627.458 1088.67 631.045 1092.99 636.112 1099.44C650.098 1117.16 640.596 1126.06 600.779 1128.49C558.867 1131.04 489.04 1122.72 378.518 1146.72C267.997 1170.72 209.836 1263.82 143.844 1245.56C101.716 1233.91 93.6198 1143.97 136.71 1078.53Z" fill="#E0E0E0"/>
<path fill-rule="evenodd" clip-rule="evenodd" d="M179.156 1024.8C154.172 1053.43 130.235 1174.07 166.597 1185.02C203.943 1196.27 273.193 1122.25 370.337 1098.58C467.48 1074.91 527.975 1073.69 563.026 1071.72C598.079 1069.77 603.795 1065.52 594.542 1047.78C598.298 1052.77 602.261 1057.74 606.009 1062.58C619.891 1080.3 612.701 1090.65 576.548 1093.49C538.687 1096.46 474.238 1091.61 372.696 1115.49C271.155 1139.37 207.03 1217.19 159.783 1206.95C122.801 1198.94 123.27 1087.51 179.156 1024.8Z" fill="#E0E0E0"/>
<path fill-rule="evenodd" clip-rule="evenodd" d="M209.957 991.928C190.332 1020.03 154.195 1132.11 191.694 1139.02C226.532 1145.43 279.736 1088.64 367.097 1065.35C454.459 1042.07 509.35 1042.72 541.878 1038.89C568.48 1035.76 578.442 1029.38 569.064 1013.06C573.172 1018.94 575.086 1021.65 579.394 1027.37C592.437 1044.84 585.273 1053.5 552.642 1056.32C518.394 1059.27 460.552 1060 368.522 1083.51C276.493 1107.01 226.675 1166.15 177.684 1163.54C150.811 1162.11 154.756 1055.16 209.957 991.928Z" fill="#E0E0E0"/>
<path fill-rule="evenodd" clip-rule="evenodd" d="M248.069 946.375C217.782 993.933 194.216 1086.94 214.849 1094.24C228.653 1099.14 300.732 1054.55 364.399 1036.01C428.067 1017.47 492.63 1011.46 521.419 1005.07C546.683 999.461 552.708 990.715 543.139 973.444C547.091 980.398 549.713 984.565 554.366 991.03C566.163 1008.4 560.29 1018.99 531.717 1023.57C500.95 1028.51 446.182 1030.03 365.725 1052.73C285.268 1075.43 211.031 1134.1 197.918 1115.5C182.206 1093.22 199.428 1011.53 248.069 946.375Z" fill="#E0E0E0"/>
<path fill-rule="evenodd" clip-rule="evenodd" d="M284.095 900.801C277.633 918.55 233.135 971.024 242.695 1050.32C243.821 1059.66 298.595 1023.27 368.39 1000.28C438.184 977.283 478.812 980.045 503.977 973.377C525.972 967.551 531.405 959.886 524.582 943.258C527.46 949.353 529.346 952.253 532.946 958.314C542.87 975.47 537.583 985.843 512.574 990.9C485.418 996.394 446.129 996.745 371.737 1016.9C297.345 1037.05 228.496 1088.95 225.391 1070.06C215.939 1012.58 250.359 956.392 284.095 900.801Z" fill="#E0E0E0"/>
<path fill-rule="evenodd" clip-rule="evenodd" d="M298.913 876.908C292.948 903.376 267.358 958.624 272.701 1009.92C273.146 1014.19 309.891 989.749 369.366 967.694C428.843 945.638 467.928 945.285 489.836 939.552C509.222 934.481 514.724 927.519 509.605 911.128C511.496 916.054 512.486 917.799 514.781 922.554C522.442 939.969 517.761 950.338 496.179 955.36C472.524 960.864 432.826 962.352 368.404 984.864C303.985 1007.38 256.464 1040.4 256.836 1030.35C259.611 955.592 273.442 947.606 298.913 876.908Z" fill="#E0E0E0"/>
<path fill-rule="evenodd" clip-rule="evenodd" d="M307.176 862.276C306.449 884.871 292.681 931.271 297.35 969.032C297.987 974.19 324.218 956.558 375.194 934.901C426.167 913.244 465.142 915.6 482.683 905.57C497.89 896.873 497.049 888.836 496.843 873.513C498.245 880.099 500.689 883.89 502.321 889.891C507.186 907.289 503.514 916.795 485.38 923.485C465.193 930.935 429.182 927.932 373.703 950.111C318.223 972.288 285.025 994.308 285.418 990.273C284.026 939.207 297.775 921.322 307.176 862.276Z" fill="#E0E0E0"/>
<path fill-rule="evenodd" clip-rule="evenodd" d="M316.798 847.926C316.166 869.316 307.519 927.87 315.595 934.97C319.947 938.796 341.717 919.374 385.029 902.316C428.342 885.256 450.869 879.776 469.142 875.281C483.574 871.731 492.712 862.115 494.516 837.492C494.635 844.327 495.134 846.892 495.645 853.252C497.312 870.803 492.734 882.938 476 890.212C457.366 898.311 427.609 898.215 379.562 919.904C331.511 941.591 306.665 960.17 305.973 951.542C303.633 922.348 306.215 910.238 316.798 847.926Z" fill="#E0E0E0"/>
<path fill-rule="evenodd" clip-rule="evenodd" d="M323.18 831.241C325.27 852.419 324.541 886.717 328.068 892.979C335.486 906.146 355.312 890.451 393.833 869.977C432.355 849.504 456.047 848.745 471.761 840.413C486.918 832.374 495.28 819.528 497.631 801.635C496.794 807.906 496.065 814.323 495.235 820.746C493.297 838.621 487.628 850.931 472 858.336C455.158 866.314 429.676 866.422 388.462 887.409C347.246 908.396 324.153 924.835 321.433 911.286C317.709 892.745 324.633 842.861 323.18 831.241Z" fill="#E0E0E0"/>
<path fill-rule="evenodd" clip-rule="evenodd" d="M322.744 798.383C328.093 814.213 330.294 825.375 332.073 834.874C338.159 867.34 341.194 869.41 404.705 833.588C439.42 814.008 461.111 812.845 476.586 805.224C491.536 797.862 499.572 786.189 506.546 767.617C504.631 773.029 502.607 778.293 500.687 783.552C497.318 801.8 489.366 813.925 473.765 821.926C457.661 830.184 435.202 830.911 399.221 850.874C363.24 870.838 333.443 886.633 331.806 868.841C327.394 820.861 326.805 817.676 322.744 798.383Z" fill="#E0E0E0"/>
<path fill-rule="evenodd" clip-rule="evenodd" d="M315.994 759.099C324.67 781.302 331.748 800.45 340.458 816.482C352.725 839.064 380.781 818.102 414.635 798.969C448.49 779.838 470.268 775.653 486.961 767.035C503.682 758.402 514.401 745.963 525.474 726.588C521.546 733.159 517.628 739.882 514.505 745.959C507.642 764.677 496.701 777.02 480.187 785.445C464.486 793.457 443.503 797.158 409.682 816.533C375.86 835.909 346.75 856.018 339.712 833.973C320.665 774.313 329.918 802.029 315.994 759.099Z" fill="#E0E0E0"/>
<path fill-rule="evenodd" clip-rule="evenodd" d="M306.459 716.767C315.089 737.006 317.3 739.182 337.308 782.788C349.904 810.237 381.792 789.468 420.903 767.612C460.013 745.757 480.998 742.693 501.897 730.755C523.394 718.474 540.474 706.946 556.479 686.879C539.257 707.891 514.414 737.88 492.098 750.83C474.203 761.215 451.738 765.574 417.285 784.959C382.831 804.341 348.267 829.213 334.168 790.723C321.168 755.232 324.672 764.323 306.459 716.767Z" fill="#E0E0E0"/>
<path fill-rule="evenodd" clip-rule="evenodd" d="M297.881 680.718C305.771 697.282 332.904 749.626 344.883 757.723C366.04 772.026 397.589 750.741 430.792 734.461C470.608 714.938 497.717 708.25 521.738 695.914C546.987 682.945 558.516 674.783 582.645 653.365C562.527 675.198 535.099 701.425 509.537 715.496C488.778 726.923 463.203 732.679 425.847 752.175C395.076 768.234 366.488 786.934 348.171 775.558C333.97 766.738 306.716 699.234 297.881 680.718Z" fill="#E0E0E0"/>
<path fill-rule="evenodd" clip-rule="evenodd" d="M290.328 651.993C332.858 720.106 345.008 726.351 353.475 727.857C377.054 732.055 404.034 721.335 444.224 699.897C489.249 675.88 523.898 669.148 551.324 656.806C580.202 643.807 603.326 628.024 626.291 606.407C619.459 612.814 612.93 619.053 606.395 625.143C585.891 646.337 562.7 662.492 536.286 675.459C511.258 687.747 479.372 695.42 437.525 718.373C410.67 733.102 381.053 746.498 354.345 746.371C340.773 746.313 316.861 703.817 290.328 651.993Z" fill="#E0E0E0"/>
<path fill-rule="evenodd" clip-rule="evenodd" d="M269.412 613.03C285.85 630.849 327.887 682.629 354.38 687.665C383.849 693.268 421.963 674.89 458.316 661.104C515.027 639.6 557.064 627.029 592.354 610.769C629.939 593.45 660.831 573.904 686.229 551.259C677.502 559.124 668.768 566.836 660.041 574.701C635.447 596.853 606.513 615.534 571.755 632.12C539.962 647.292 502.028 658.454 450.296 679.423C414.443 693.955 380.215 714.5 351.542 706.827C330.419 701.174 291.097 642.828 269.412 613.03Z" fill="#E0E0E0"/>
<path fill-rule="evenodd" clip-rule="evenodd" d="M225.803 547.414C236.112 561.815 243.796 569.719 303.766 624.42C345.115 662.136 406.017 653.204 472.045 630.353C538.073 607.502 587.99 592.013 628.845 573.609C672.545 553.924 706.656 532.952 731.738 510.171C723.122 518.184 713.9 526.527 704.878 534.71C679.479 557.356 646.649 577.35 606.218 595.817C568.594 613.001 523.646 626.574 463.097 648.715C402.546 670.857 345.997 679.015 308.375 640.766C266.613 598.309 260.67 595.377 225.803 547.414Z" fill="#E0E0E0"/>
<path fill-rule="evenodd" clip-rule="evenodd" d="M198.684 510.882C209.171 524.667 226.341 539.847 292.29 589.71C342.061 627.34 411.08 620.054 488.488 595.372C565.895 570.687 622.623 553.548 667.516 534.068C714.338 513.748 747.673 492.693 769.858 469.896C762.9 477.98 754.791 485.816 746.794 493.798C723.364 516.5 689.712 537.148 645.413 556.402C603.27 574.72 550.812 590.406 479.346 614.047C407.881 637.687 343.842 644.592 297.504 605.722C253.104 568.479 233.708 557.394 198.684 510.882Z" fill="#E0E0E0"/>
<path fill-rule="evenodd" clip-rule="evenodd" d="M163.004 468.076C173.579 481.553 206.896 508.316 278.438 553.136C336.743 589.664 416.259 583.098 506.174 556.377C596.09 529.656 659.717 510.951 706.547 491.469C754.654 471.452 785.509 451.063 802.76 428.959C798.612 435.238 794.156 441.53 788.562 447.877C768.641 470.412 736.423 490.964 688.367 511.488C642.652 531.015 582.605 549.297 498.581 574.978C414.558 600.66 339.55 606.537 284.883 568.939C235.43 534.926 200.909 514.794 163.004 468.076Z" fill="#E0E0E0"/>
<path fill-rule="evenodd" clip-rule="evenodd" d="M130.895 430.043C141.558 443.212 186.326 480.525 262.564 520.955C328.097 555.707 418.057 550.448 519.244 521.594C620.431 492.74 690.683 467.361 739.763 446.261C790.52 424.439 820.369 403.496 830.846 382.476C827.464 389.629 824.282 396.62 820.178 403.807C805.189 425.651 776.399 446.212 725.577 467.607C676.619 488.219 609.053 512.205 513.192 539.969C417.331 567.733 332.668 572.721 269.511 536.431C219.199 507.519 167.853 475.72 130.895 430.043Z" fill="#E0E0E0"/>
<path fill-rule="evenodd" clip-rule="evenodd" d="M105.383 397.875C115.834 410.902 166.285 450.432 244.398 488.345C315.447 522.828 412.05 519.004 520.915 488.491C629.781 457.977 706.755 431.206 759.045 406.275C813.051 380.525 842.128 356.854 846.353 337.046C844.85 344.566 843.347 352.086 841.639 359.615C831.885 380.599 803.442 403.325 749.533 428.007C697.048 452.037 622.551 476.561 518.241 506.097C413.931 535.633 321.071 539.35 252.459 503.311C175.097 462.673 124.849 422.022 114.288 408.849C111.321 405.191 108.352 401.534 105.383 397.875Z" fill="#E0E0E0"/>
<path fill-rule="evenodd" clip-rule="evenodd" d="M83.3906 372.786C93.6201 385.519 145.179 422.699 225.13 457.502C300.496 490.309 403.507 488.56 519.179 456.505C634.85 424.45 715.27 396.126 767.286 370.924C820.723 345.031 846.166 322.313 847.005 303.122C847.634 309.78 847.843 316.306 846.519 323.208C842.301 343.169 817.175 365.625 762.765 391.05C709.917 415.744 631.473 442.547 519.379 473.671C407.284 504.795 307.532 506.25 233.884 471.824C154.505 434.721 102.524 396.493 92.1841 383.612C89.319 379.95 86.3583 376.444 83.3906 372.786Z" fill="#E0E0E0"/>
<path fill-rule="evenodd" clip-rule="evenodd" d="M168.648 316.73C71.5135 357.853 123.602 393.13 204.841 424.58C283.421 455.002 391.63 455.314 512.979 421.847C634.328 388.38 717.843 358.781 769.661 333.879C822.505 308.482 844.624 287.737 843.725 268.933C844.09 274.387 844.549 279.684 844.899 284.836C845.799 303.638 823.617 325.157 769.352 351.22C716.426 376.641 634.84 405.607 516.151 438.415C397.462 471.222 291.676 470.719 213.89 438.586C132.592 405.001 80.2045 368.685 70.0858 356.099C67.2208 352.436 64.4664 348.92 168.648 316.73Z" fill="#E0E0E0"/>
<path fill-rule="evenodd" clip-rule="evenodd" d="M87.2281 1572.45C184.228 1593.7 295.834 1470.81 446.934 1454.56C598.034 1438.31 697.159 1463.23 761.612 1469.6C826.747 1476.04 853.442 1471.13 849.823 1451.7C851.071 1458.33 852.325 1465.11 853.574 1471.74C855.026 1491.27 827.642 1495.77 762.21 1488.57C697.557 1481.46 598.134 1455.94 446.523 1471.91C294.914 1487.87 184.201 1606.49 86.2936 1589.66C34.7892 1580.82 1.406 1526.57 0.837891 1470.15C6.27635 1515.78 41.7279 1562.48 87.2281 1572.45Z" fill="#E0E0E0"/>
<path fill-rule="evenodd" clip-rule="evenodd" d="M348.276 344.567C347.517 317.067 314.537 209.314 202.871 184.671C208.475 157.4 307.281 128.786 285.104 113.055C340.023 134.632 364.765 189.808 371.271 237.515C377.777 285.221 346.183 343.456 348.276 344.567Z" fill="#E0E0E0"/>
<path fill-rule="evenodd" clip-rule="evenodd" d="M536.336 262.897C554.086 226.774 610.694 231.039 655.638 213.289C688.236 168.91 700.444 120.584 695.253 77.8007C684.932 -7.26073 608.387 -44.6674 552.796 81.8683C523.506 162.313 527.659 232.479 536.336 262.897Z" fill="#E0E0E0"/>
<path fill-rule="evenodd" clip-rule="evenodd" d="M853.574 1471.74C857.268 1490.67 700.214 1458.97 558.38 1459.89C519.241 1460.14 428.726 1469.95 386.74 1482.68C786.721 1381.87 356.511 980.643 495.233 820.748C512.015 1095.9 801.539 1128.59 853.574 1471.74Z" fill="#E0E0E0"/>
<path fill-rule="evenodd" clip-rule="evenodd" d="M475.877 433.174C615.793 402.047 814.318 344.186 843.724 268.933C879.285 309.227 866.371 386.079 704.89 534.711C588.687 641.667 465.248 697.325 383.221 803.781C150.724 1105.52 6.20588 1239.5 5.83375 1396.44C1.60851 1127.45 327.104 915.664 321.857 811.525C320.44 783.38 312.769 689.733 259.189 601.458C191.241 489.507 86.8671 388.21 69.2183 354.655C79.9133 362.905 225.458 488.882 475.877 433.174Z" fill="#E0E0E0"/>
</svg>
