<svg width="273" height="86" viewBox="0 0 273 86" fill="none" xmlns="http://www.w3.org/2000/svg">
<rect width="273" height="86" fill="#102A83"/>
<mask id="mask0_1470_3819" style="mask-type:alpha" maskUnits="userSpaceOnUse" x="0" y="0" width="273" height="86">
<rect width="273" height="86" fill="#102A83"/>
</mask>
<g mask="url(#mask0_1470_3819)">
<path d="M149.84 73.5725L154.676 74.7586L163.327 29.6123L133.926 69.3789L139.174 72.0342L154.509 49.3006L149.84 73.5725Z" fill="#295CC9" fill-opacity="0.31"/>
<path d="M162.634 73.9323L168.498 75.8684L180.45 -15.9853L123.091 54.0748L131.047 59.0947L171.322 6.98564L162.634 73.9323Z" fill="#295CC9" fill-opacity="0.31"/>
<path d="M174.329 76.2205L182.114 79.1666L201.516 -60.657L110.403 35.0825L119.937 42.8111L191.634 -37.4565L174.329 76.2205Z" fill="#295CC9" fill-opacity="0.31"/>
<path d="M137.129 -5.46467L170.438 -40.0432L168.93 -45.4302L131.471 -15.4353L137.129 -5.46467Z" fill="#295CC9" fill-opacity="0.31"/>
<path d="M205.934 -20.0175L193.023 68.4082L189.596 50.3189L201.579 -22.4126L205.934 -20.0175Z" fill="#295CC9" fill-opacity="0.31"/>
<path d="M130.511 -18.8633L149.176 -57.49L144.238 -63.428L122.692 -23.3934L130.511 -18.8633Z" fill="#295CC9" fill-opacity="0.31"/>
<path d="M107.187 -14.4256L137.894 -70.0011L136.111 -76.3676L98.3741 -23.9677L107.187 -14.4256Z" fill="#295CC9" fill-opacity="0.31"/>
<path d="M101.429 -34.9941L128.189 -79.8034L124.485 -81.3339L98.1378 -46.7476L101.429 -34.9941Z" fill="#295CC9" fill-opacity="0.31"/>
<path d="M209.775 -17.9973L196.967 69.3341L203.898 56.0658L214.611 -16.8111L209.775 -17.9973Z" fill="#295CC9" fill-opacity="0.31"/>
<path d="M218.177 -9.92433L203.413 86.5052L209.931 77.6137L225.277 -9.42683L218.177 -9.92433Z" fill="#295CC9" fill-opacity="0.31"/>
<path d="M242.131 115.116L246.659 113.739L231.68 52.929L226.356 99.7205L233.935 104.855L233.563 75.7394L242.131 115.116Z" fill="#295CC9" fill-opacity="0.31"/>
<path d="M257.325 115.277L261.476 114.015L230.351 2.84697L213.633 90.8364L220.047 88.8852L232.234 25.6574L257.325 115.277Z" fill="#295CC9" fill-opacity="0.31"/>
<path d="M272.316 105.935L282.504 96.9897L239.167 -5.14915L234.948 -1.20847L272.316 105.935Z" fill="#295CC9" fill-opacity="0.31"/>
<path d="M266.598 46.0275L273.561 40.1892L252.75 -9.28096L247.091 -7.55938L266.598 46.0275Z" fill="#295CC9" fill-opacity="0.31"/>
</g>
</svg>
