<svg width="1074" height="1031" viewBox="0 0 1074 1031" fill="none" xmlns="http://www.w3.org/2000/svg">
<path fill-rule="evenodd" clip-rule="evenodd" d="M32.5704 659.657C28.6697 724.933 17.0661 792.985 23.0786 827.928C26.5393 862.901 41.06 922.965 60.2219 960.376C79.5271 997.581 113.988 1009.45 156.191 1021.05C198.569 1032.84 248.503 1031.79 303.497 1025.65C358.482 1019.5 403.134 1016.05 455.608 1009.99C508.093 1006.34 660.449 1003.3 736.775 1006.89C812.969 1010.28 844.554 1009.71 884.002 1013.92C926.34 1020.43 929.062 1020.41 944.732 1020.1C960.542 1019.78 1033.88 1010.81 1033.88 1010.81C1033.88 1010.81 1054.81 1012.96 1056.68 975.194C1058.48 937.64 1050.37 927.747 1047.59 922.687C1044.78 917.67 1008.1 918.438 973.94 921.552C937.336 922.33 856.125 928.975 816.432 929.797C774.493 930.655 748.143 926.15 724.353 924.202C700.677 924.684 577.161 924.704 532.621 928.064C488.01 931.475 351.324 931.794 306.746 935.141C262.144 938.604 204.436 944.892 175.188 927.912C143.337 913.409 129.666 891.022 126.613 873.552C123.562 858.456 124.514 660.127 124.514 660.127L122.581 457.026C122.581 457.026 120.848 379.112 116.906 321.485C113.036 266.256 108.807 198.601 103.439 181.205C100.286 161.142 120.5 128.095 120.5 128.095C120.5 128.095 188.551 114.134 241.069 110.439C296.196 106.906 416.936 104.466 469.484 105.82C524.878 109.721 611.488 105.532 640.294 102.377C671.673 99.3053 758.591 102.53 777.074 107.068C795.468 109.251 861.174 105.419 884.749 107.457C908.671 109.454 935.123 119.072 948.602 141.294C959.723 166.332 963.831 231.518 961.558 249.021C956.701 269.286 950.291 329.669 948.221 357.319C946.39 387.429 956.129 477.602 962.539 530.218C968.952 580.422 973.806 675.478 971.768 705.843C969.802 735.953 965.388 771.151 952.536 783.974C937.1 799.354 931.91 804.527 908.335 807.485C887.495 810.344 797.935 804.722 737.35 805.889C679.816 809.649 519.45 810.333 472.169 811.357C422.13 812.33 377.682 818.24 343.489 816.479C309.294 814.574 282.863 807.639 277.199 792.576C269.057 777.796 269.465 674.805 269.465 674.805C269.465 674.805 266.313 534.306 264.582 458.961C260.3 386.343 252.98 296.088 247.142 271.121C244.059 243.561 254.3 233.277 264.551 228.027C274.995 222.833 317.17 221.942 359.26 226.099C401.362 230.259 483.022 238.678 514.567 238.062C548.729 234.826 590.522 231.518 611.425 223.408C634.971 215.459 690.127 214.365 711.162 216.513C732.261 218.522 782.236 217.518 798.417 242.231C817.413 264.525 823.312 297.091 818.776 327.283C811.649 360.074 815.643 422.729 816.052 442.946C819.176 462.896 834.169 545.5 832.509 590.548C830.881 635.724 810.522 666.406 797.526 671.608C784.439 676.952 732.188 683.066 703.185 680.979C674.214 679.176 618.952 670.328 595.235 670.749C571.526 671.239 484.991 675.519 458.691 678.447C429.759 679.031 406.35 684.625 400.787 677.21C392.81 669.948 392.924 674.833 389.594 644.643C386.369 617.299 374.591 559.785 370.669 504.503C366.9 452.059 367.986 384.16 372.841 366.484C375.012 348.892 377.479 341.313 377.479 341.313C377.479 341.313 493.029 331.297 534.998 330.487C574.415 329.709 660.921 320.44 671.511 320.277C684.568 319.99 689.997 327.355 692.812 334.923C695.656 344.804 696.366 377.452 694.295 400.095C689.543 422.811 690.192 455.328 695.831 470.338C701.527 487.78 712.75 517.735 702.746 540.582C690.098 566 681.955 561.117 650.536 561.823C616.516 562.426 582.322 563.071 553.379 563.719C521.9 564.364 498.283 567.252 492.69 554.676C487.252 544.905 484.857 436.954 484.857 436.954C484.857 436.954 510.839 426.416 537.198 425.862C560.773 425.391 597.783 432.161 597.957 439.689C598.195 449.713 587.605 452.378 564.031 452.909C540.383 453.331 522.002 453.719 516.942 458.86C511.646 461.481 517.556 488.938 525.697 501.351C534.002 516.261 539.195 518.586 560.262 518.176C583.98 520.336 628.589 519.417 639.168 519.21C647.076 519.048 659.938 513.701 662.313 493.618C666.993 473.36 661.26 446.07 652.636 418.508C646.737 391.031 649.288 388.492 649.288 388.492L630.422 366.331C630.422 366.331 567.43 365.042 528.103 370.827C486.004 374.197 451.839 372.403 441.394 372.569C430.816 372.845 422.774 365.483 417.921 380.607C412.966 398.283 405.775 425.966 403.47 441.131C403.838 456.125 407.772 513.793 413.61 546.431C422.337 578.863 422.774 598.898 417.674 611.656C412.73 624.356 434.337 646.445 473.786 648.073C510.633 650.011 550.021 646.506 589.275 643.321C631.244 639.727 694.267 636.093 715.229 630.633C738.772 625.276 754.515 629.814 774.699 589.401C792.141 548.602 789.086 523.736 785.42 481.05C781.797 438.469 775.312 380.834 769.302 348.317C760.73 315.78 754.689 283.439 741.324 273.682C727.99 266.369 667.598 265.118 622.926 265.969C578.287 266.912 567.932 274.582 515.446 275.646C462.91 276.701 378.565 270.968 375.883 268.561C370.556 266.203 347.114 274.071 334.089 276.988C318.418 279.642 307.768 277.531 307.768 277.531C307.768 277.531 305.566 297.666 300.713 310.088C295.592 320.277 285.339 333.069 288.668 360.597C291.792 385.646 300.609 425.647 301.93 485.949C300.641 546.217 298.336 558.67 296.123 579.038C293.932 596.499 292.603 656.686 295.621 674.282C295.99 689.223 296.707 719.536 326.222 749.06C353.126 778.626 397.94 785.233 421.648 787.26C448.009 786.717 476.95 786.146 503.065 780.531C529.16 775.053 542.217 769.749 552.735 769.554C563.354 771.828 605.485 776.017 634.283 775.422C665.774 772.205 807.471 764.382 807.471 764.382C807.471 764.382 836.483 763.778 854.691 758.329C873.044 752.964 893.811 742.435 908.837 709.468C923.869 676.503 920.162 626.423 922.038 593.825C926.41 561.229 928.682 533.446 922.062 478.286C912.967 423.221 908.389 338.055 909.884 285.386C908.726 232.633 901.948 165.024 901.948 165.024C901.948 165.024 885.738 150.368 843.625 146.026C804.106 141.703 780.836 154.914 757.058 147.809C733.073 143.116 685.615 131.606 640.965 132.518C598.967 135.917 575.421 141.436 525.621 142.452C475.655 146.055 415.304 147.315 386.228 145.309C354.604 140.885 299.342 136.931 273.291 147.602C244.628 155.62 242.148 158.253 226.408 163.731C213.351 168.78 200.395 174.167 192.519 179.442C184.858 184.543 172.643 224.903 165.658 267.678C156.185 313.017 154.965 373.448 159.378 458.605C166.569 541.311 170.572 603.974 171.69 654.178C172.979 706.856 157.608 732.44 160.978 762.396C161.581 790.076 165.411 842.594 202.761 869.527C242.834 896.401 279.567 898.058 321.638 897.199C361.057 896.38 387.242 895.866 445.156 894.719C505.64 893.48 734.119 888.832 734.119 888.832C734.119 888.832 765.537 885.759 799.864 892.549C831.652 902.012 857.942 906.404 894.749 905.647C931.596 904.909 975.826 889.007 1011.93 855.567C1050.57 822.172 1053.41 829.566 1059.12 734.118C1062.27 638.755 1057.25 530.866 1057.25 530.866C1057.25 530.866 1063.72 465.322 1070.55 417.536C1074.72 369.823 1075.87 304.434 1069.66 264.381C1063.52 224.409 1052.23 189.551 1052.23 189.551C1052.23 189.551 1061.52 136.461 1058.11 98.8837C1051.93 61.384 1051.38 38.8411 1003.89 24.7094C953.511 10.6799 921.958 -1.21021 856.212 0.0987496C790.402 1.44261 730.123 10.2189 685.615 11.1189C640.831 12.0215 625.192 14.8574 591.031 13.0261C556.793 13.6993 530.475 11.8558 496.35 9.98334C464.728 8.00619 385.88 12.196 349.146 12.9527C312.473 13.6994 275.666 14.4363 225.805 20.4812C176.062 26.47 155.169 31.9998 134.106 32.481C113.07 35.3084 84.1682 30.8853 66.0822 48.8567C48.0697 66.7894 30.2194 89.6873 20.6541 127.519C10.9267 165.391 12.1421 220.592 10.7197 275.954C9.29725 331.05 0 381.58 0 381.58C0 381.58 14.654 451.568 18.4823 504.33C24.875 554.307 33.7996 596.726 32.5704 659.657Z" fill="#E0E0E0"/>
</svg>
