<svg width="1171" height="767" viewBox="0 0 1171 767" fill="none" xmlns="http://www.w3.org/2000/svg">
<path d="M660.765 238.992L591.471 24.345C582.205 -6.47199 581.524 -7.97386 572.949 19.5093L521.166 185.521C550.529 208.57 581.385 240.465 607.129 270.829C622.582 260.054 642.773 247.705 660.765 238.992Z" fill="#E0E0E0"/>
<path d="M731.206 374.334C712.027 341.954 683.55 292.899 667.745 254.131C650.578 261.729 629.39 275.812 617.184 286.021C639.622 315.471 679.599 391.992 684.843 426.995C690.309 407.169 717.828 379.666 731.206 374.334Z" fill="#E0E0E0"/>
<path d="M194.087 707.047C211.798 749.391 244.826 740.822 287.078 718.013C337.101 691.01 401.448 669.973 452.045 663.876C401.456 647.854 305.044 619.933 218.566 640.779C202.547 644.642 174.618 656.425 194.087 707.047Z" fill="#E0E0E0"/>
<path d="M983.064 707.047C965.352 749.391 932.324 740.822 890.072 718.013C840.049 691.01 775.703 669.973 725.105 663.876C775.694 647.854 872.106 619.933 958.584 640.779C974.603 644.642 1002.53 656.425 983.064 707.047Z" fill="#E0E0E0"/>
<path d="M0.960938 284.209C3.15394 329.408 23.0884 385.712 44.0025 424.655C127.412 460.677 96.4429 527.83 85.8343 533.389C142.651 604.71 191.913 609.773 268.677 616.89C284.904 618.393 320.365 622.568 315.273 616.778C312.476 613.599 287.581 603.954 268.762 594.547C199.12 559.738 148.207 477.444 133.155 433.062C101.191 338.819 42.0074 316.07 0.960938 284.209Z" fill="#E0E0E0"/>
<path d="M1170.57 284.209C1168.37 329.408 1148.44 385.712 1127.52 424.655C1044.11 460.677 1075.08 527.83 1085.69 533.389C1028.87 604.71 979.614 609.773 902.85 616.89C886.622 618.393 851.16 622.568 856.253 616.778C859.05 613.599 883.945 603.954 902.764 594.547C972.406 559.738 1023.32 477.444 1038.37 433.062C1070.34 338.819 1129.52 316.07 1170.57 284.209Z" fill="#E0E0E0"/>
<path d="M428.278 560.881C402.204 545.814 380.93 512.249 373.815 492.857C354.965 441.496 308.049 465.149 319.924 499.157C356.365 603.555 454.81 631.738 551.447 632.195C517.722 612.038 492.864 563.537 483.18 513.258C476.232 477.165 468.94 392.813 426.921 399.035C364.745 408.247 375.318 501.334 428.278 560.881Z" fill="#E0E0E0"/>
<path d="M437.604 365.589C457.2 375.453 473.734 385.395 487.825 410.534C502.613 364.148 537.266 316.393 568.314 282.78C551.645 259.67 523.49 234.607 502.445 220.93C484.427 271.114 461.365 317.839 437.604 365.589Z" fill="#E0E0E0"/>
<path d="M264.295 236.635C293.165 270.158 330.459 298.336 343.224 335.409C352.05 361.046 349.997 391.634 315.353 424.688C264.938 420.764 244.741 399.361 236.817 373.061C225.365 335.059 238.504 287.297 242.633 244.375C245.792 211.543 245.004 214.232 264.295 236.635Z" fill="#E0E0E0"/>
<path d="M908.109 236.635C879.238 270.158 841.944 298.336 829.179 335.409C820.353 361.046 822.406 391.634 857.05 424.688C907.465 420.764 927.662 399.361 935.586 373.061C947.039 335.059 933.899 287.297 929.77 244.375C926.611 211.543 927.399 214.232 908.109 236.635Z" fill="#E0E0E0"/>
<path d="M585.164 706.461L585.25 706.46H585.277L585.364 706.461C696.392 707.411 789.079 729.925 892.947 767C821.539 710.073 675.12 668.224 585.794 669.115L585.364 669.113L585.162 669.113L584.731 669.115C495.406 668.224 348.986 710.073 277.578 767C381.446 729.925 474.136 707.411 585.164 706.461Z" fill="#E0E0E0"/>
<path d="M588.995 309.078C666.556 394.614 705.647 553.376 582.416 619.724C458.779 549.8 512.463 388.814 588.995 309.078Z" fill="#E0E0E0"/>
<path d="M746.568 559.472C772.643 544.405 794.02 510.876 801.031 491.447C819.878 439.235 866.794 463.74 854.923 497.748C818.481 602.145 710.696 632.875 614.059 633.332C647.783 613.175 681.985 562.128 691.666 511.848C698.617 475.758 703.598 395.402 747.925 397.626C810.7 400.781 799.528 499.925 746.568 559.472Z" fill="#E0E0E0"/>
<path d="M293.467 495.014C325.939 552.048 342.387 578.525 397.189 612.088C406.021 617.498 412.219 621.344 412.285 621.535C412.913 623.322 405.395 623.224 395.134 621.843C357.255 616.744 288.581 594.741 246.774 560.5C220.554 539.024 193.661 514.454 176.786 483.998C155.633 445.813 169.87 445.482 184.429 447.816C223.048 454.005 275.752 463.897 293.467 495.014Z" fill="#E0E0E0"/>
<path d="M878.017 495.014C845.546 552.048 829.097 578.525 774.296 612.088C765.463 617.498 759.265 621.344 759.199 621.535C758.571 623.322 766.088 623.224 776.35 621.843C814.229 616.744 882.903 594.741 924.709 560.5C950.93 539.024 977.824 514.454 994.698 483.998C1015.85 445.813 1001.61 445.482 987.055 447.816C948.437 454.005 895.732 463.897 878.017 495.014Z" fill="#E0E0E0"/>
</svg>
