<svg width="1132" height="1149" viewBox="0 0 1132 1149" fill="none" xmlns="http://www.w3.org/2000/svg">
<path fill-rule="evenodd" clip-rule="evenodd" d="M943.165 619.935L1125.04 619.474L1125.25 1137.3L608.646 1137.31L608.637 619.515H881.805C867.018 616.584 819.627 638.068 807.103 645.136C794.545 652.217 786.752 658.018 776.794 666.109C727.387 706.233 698.521 768.922 699.459 843.268C700.814 950.764 797.491 1042.49 905.289 1044.37C1079.34 1047.4 1189.87 840.401 1071.21 696.231C1036.26 653.77 999.012 629.484 943.165 619.875V619.935ZM600.402 1148.2H1132V615.251H600.402V1148.2Z" fill="#E0E0E0"/>
<path fill-rule="evenodd" clip-rule="evenodd" d="M452.414 464.524C454.959 454.505 455.73 84.1694 455.093 83.0722C452.621 78.8111 371.407 80.0825 361.603 80.1482C328.173 80.3584 83.8578 77.2847 74.5616 79.7536C73.3554 94.4029 74.3343 112.97 74.1911 128.174C73.7417 175.8 75.739 227.386 74.8968 273.892C74.4566 298.174 74.5722 461.382 76.6469 464.131C79.5179 467.931 166.862 466.003 170.01 466.024L452.414 464.524Z" fill="#E0E0E0"/>
<path fill-rule="evenodd" clip-rule="evenodd" d="M772.96 165.967L774.483 168.67C775.803 172.559 773.836 172.668 775.674 177.783C770.836 180.887 771.711 178.151 767.89 180.887C762.152 184.989 764.371 181.373 757.384 183.901C757.292 184.256 757.21 184.453 757.21 185.004C757.21 185.556 757.072 185.858 757.092 186.108C757.581 194.064 760.788 190.698 761.599 196.984C761.678 196.301 762.726 195.221 759.682 196.42C758.59 196.853 756.805 196.867 758.278 198.827L749.086 189.418C746.396 187.999 748.413 190.325 744.415 183.888C743.975 184.019 741.449 184.571 740.862 184.663C740.836 184.668 736.799 185.083 736.092 185.07C735.845 185.065 735.416 185.07 735.178 185.07L731.827 184.465C731.722 184.465 731.363 184.465 731.254 184.465H718.286C711.842 185.963 710.931 184.072 706.736 184.637C701.393 185.373 706.736 185.583 702.016 185.202L694.49 185.858C687.787 188.705 692.389 186.844 685.421 186.384C684.867 184.887 685.553 183.878 683.85 182.48L682.129 188.855C681.106 188.488 678.946 187.136 678.768 186.923C678.676 186.791 678.443 186.502 678.364 186.384L677.602 184.457C677.562 184.326 677.536 183.959 677.399 183.748C674.128 185.621 660.162 182.724 655.738 184.077L656.124 184.51C656.163 184.642 656.365 184.891 656.425 185.009C658.703 189.437 656.192 181.733 658.427 189.468C654.053 190.151 647.574 194.494 646.882 199.772C646.472 202.87 648.839 203.538 649.008 206.409C649.328 211.841 649.021 206.159 648.829 208.252C648.816 208.475 648.671 208.843 648.646 209.067L648.997 234.703C654.433 236.99 650.45 233.9 653.425 236.214C660.518 241.728 656.851 233.639 659.82 244.265C659.899 244.568 660.042 244.948 660.131 245.25L660.869 247.435C660.961 247.724 661.184 248.211 661.243 248.618L649.57 243.394C648.216 244.669 649.491 251.172 647.05 257.519L645.646 261.107C648.528 261.593 650.302 259.61 652.693 258.226C652.007 264.013 650.998 261.876 653.212 265.559C648.073 269.146 656.233 264.111 649.076 266.889L647.1 267.77C651.666 271.328 652.594 272.454 649.897 278.503L654.39 272.636L655.832 277.114C656.316 277.889 653.761 278.073 658.17 278.567C650.925 279.996 654.364 276.742 652.813 282.268C661.13 282.031 656.534 280.627 661.526 283.424L656.089 289.493C655.97 289.717 655.827 290.19 655.614 290.493C648.977 283.158 659.143 286.228 651.691 283.233C651.537 283.549 651.469 283.733 651.433 284.258C651.407 284.797 651.245 285.046 651.202 285.309C651.162 285.572 651.062 286.071 651.008 286.412C650.956 286.767 650.917 287.174 650.855 287.582C649.96 292.874 653.188 286.847 649.53 293.641L645.804 290.533C646.674 296.103 646.61 302.882 646.595 308.032C643.057 306.51 642.962 305.316 641.159 306.373L646.61 309.905C645.656 314.363 645.364 318.07 644.485 323.473C643.966 326.655 641.761 324.117 644.762 327.738C647.311 330.826 643.087 327.397 646.792 328.75L649.283 329.315C649.788 335.59 646.996 336.346 645.389 341.456C645.587 341.693 645.829 341.798 645.913 342.193C646.472 345.02 651.572 347.347 653.761 349.053C648.819 349.92 647.311 348.528 644.642 346.656C646.506 357.667 653.657 351.909 659.163 351.771C658.703 355.69 658.718 352.573 657.76 358.152C662.583 356.743 660.21 356.639 663.903 357.679C664.14 357.81 664.506 357.942 664.738 358.02L657.171 360.654C666.498 360.076 677.419 359.127 686.315 361.507C698.275 366.642 753.944 357.599 772.634 360.654L772.472 500.268L958.954 500.913L959.676 359.647L1096.91 355.159C1094.25 326.871 1093.14 294.642 1091.62 265.938C1089.99 235.098 1087.02 206.341 1084.97 176.624L960.664 176.912L953.428 32.8444C944.627 30.7579 817.974 34.2082 787.966 34.45C759.009 34.6865 762.301 23.1276 768.316 100.547C770.011 122.356 771.711 144.161 772.966 166.051L772.96 165.967ZM686.309 361.429C677.414 359.041 666.492 359.994 657.166 360.574L664.733 357.942C664.5 357.81 664.135 357.666 663.897 357.6C660.205 356.562 662.578 356.667 657.755 358.073C658.713 352.493 658.698 355.611 659.158 351.693C653.652 351.824 646.5 357.587 644.637 346.576C647.306 348.449 648.814 349.839 653.756 348.974C651.567 347.269 646.466 344.942 645.908 342.114C645.829 341.72 645.582 341.601 645.383 341.378C646.99 336.268 649.783 335.511 649.278 329.236L646.787 328.67C643.082 327.315 647.306 330.751 644.757 327.659C641.756 324.037 643.961 326.582 644.48 323.394C645.359 317.991 645.651 314.285 646.604 309.827L641.154 306.293C642.957 305.229 643.052 306.438 646.59 307.953C646.603 302.804 646.669 296.024 645.799 290.454L649.525 293.561C653.183 286.761 649.955 292.799 650.85 287.503C650.915 287.096 650.941 286.688 651.003 286.334C651.056 286.005 651.152 285.506 651.197 285.23C651.236 284.967 651.399 284.717 651.428 284.178C651.467 283.652 651.533 283.47 651.685 283.155C659.138 286.149 648.972 283.023 655.609 290.414C655.822 290.112 655.965 289.638 656.083 289.415L661.52 283.345C656.529 280.548 661.125 281.953 652.807 282.189C654.359 276.664 650.919 279.917 658.164 278.489C653.756 277.989 656.31 277.806 655.827 277.036L654.384 272.557L649.892 278.423C652.589 272.374 651.66 271.248 647.094 267.689L649.071 266.809C656.228 264.031 648.068 269.068 653.207 265.481C650.993 261.798 652.002 263.934 652.688 258.148C650.296 259.531 648.523 261.517 645.641 261.028L647.044 257.44C649.491 251.094 648.211 244.585 649.565 243.314L661.238 248.54C661.185 248.133 660.951 247.645 660.863 247.356L660.126 245.172C660.034 244.869 659.899 244.489 659.815 244.187C656.845 233.561 660.512 241.65 653.42 236.135C650.445 233.826 654.428 236.91 648.992 234.622L648.641 208.988C648.667 208.778 648.804 208.397 648.823 208.173C649.017 206.078 649.323 211.762 649.002 206.33C648.834 203.459 646.466 202.792 646.876 199.693C647.569 194.415 654.048 190.071 658.422 189.39C656.187 181.654 658.698 189.389 656.419 184.931C656.354 184.799 656.158 184.511 656.119 184.432L655.732 183.997C660.157 182.637 674.122 185.54 677.394 183.67C677.528 183.88 677.557 184.274 677.596 184.379L678.359 186.305C678.437 186.437 678.67 186.739 678.763 186.844C678.941 187.054 681.101 188.412 682.124 188.777L683.844 182.401C685.543 183.799 684.861 184.809 685.416 186.305C692.384 186.765 687.782 188.624 694.485 185.779L702.011 185.123C706.731 185.491 701.388 185.293 706.731 184.557C710.926 183.979 711.837 185.882 718.28 184.387H731.249C731.354 184.387 731.713 184.387 731.822 184.387L735.173 184.992C735.411 184.992 735.84 184.992 736.087 184.992C736.794 184.992 740.826 184.597 740.857 184.584C741.444 184.453 743.969 183.9 744.409 183.808C748.408 190.242 746.391 187.919 749.081 189.338L758.273 198.749C756.8 196.782 758.585 196.776 759.677 196.341C762.721 195.132 761.677 196.209 761.593 196.906C760.783 190.62 757.575 193.985 757.087 186.029C757.074 185.78 757.205 185.478 757.205 184.926C757.205 184.361 757.284 184.177 757.378 183.822C764.366 181.297 762.147 184.912 767.885 180.807C771.706 178.069 770.831 180.807 775.669 177.703C773.831 172.588 775.8 172.479 774.478 168.59L772.955 165.887L772.981 172.628C762.771 177.264 638.916 169.847 633.178 175.687C630.637 178.273 635.348 260.924 635.55 267.072C636.608 299.365 636.964 331.098 636.574 363.445C644.669 363.971 652.967 363.314 661.126 363.156C668.539 362.959 681.315 363.998 686.305 361.349L686.309 361.429Z" fill="#E0E0E0"/>
<path fill-rule="evenodd" clip-rule="evenodd" d="M607.139 6.73657H1123.9H1125.26V526.207H607.148L607.139 6.73657ZM600.402 532.948H1132V0H600.402V532.948Z" fill="#E0E0E0"/>
<path fill-rule="evenodd" clip-rule="evenodd" d="M186.197 860.812H221.277V773.113C222.73 774.787 224.026 776.241 225.651 778.183L276.026 839.792C279.401 844.063 281.67 846.962 285.001 851.058C295.242 863.651 289.025 860.812 322.473 860.812V712.396H287.389V800.096C284.29 798.02 280.416 792.465 277.945 789.303L219.226 717.148C213.379 709.577 211.893 712.396 186.197 712.396V860.812Z" fill="#E0E0E0"/>
<path fill-rule="evenodd" clip-rule="evenodd" d="M6.74058 8.08838L228.021 8.0964L238.814 8.08838H524.861L526.2 527.558H6.74058V8.08838ZM0 534.3H531.598V1.35181H0V534.3Z" fill="#E0E0E0"/>
<path fill-rule="evenodd" clip-rule="evenodd" d="M399.375 789.304C399.375 776.958 405.083 763.446 411.172 756.575C436.446 728.039 491.12 743.33 491.12 785.255C491.12 801.129 488.942 812.507 478.029 823.434C462.682 838.794 435.369 841.419 416.494 826.153C410.49 821.294 407.098 816.36 403.838 809.125C402.227 805.562 399.375 793.637 399.375 789.304ZM364.295 783.906C364.295 811.519 368.836 825.459 388.22 844.983C416.257 873.201 467.581 872.999 501.365 846.77C511.907 838.585 526.2 816.658 526.2 798.748C526.2 768.704 526.279 756.555 503.609 733.639C469.376 699.034 393.487 705.795 371.586 754.767C367.948 762.913 364.295 772.895 364.295 783.906Z" fill="#E0E0E0"/>
<path fill-rule="evenodd" clip-rule="evenodd" d="M14.8379 797.398C14.8379 816.815 21.4536 834.301 31.3345 844.315C57.8435 871.178 112.035 869.795 135.258 843.619C145.304 832.296 151.111 814.297 151.111 793.356V712.405H116.027V790.659C116.027 849.626 68.3564 834.001 60.3479 826.105C56.2523 822.062 51.2645 811.862 51.2645 804.152V712.405H14.8379V797.398Z" fill="#E0E0E0"/>
<path fill-rule="evenodd" clip-rule="evenodd" d="M392.634 941.768C392.634 955.551 392.465 964.471 405.147 975.123C411.152 980.168 420.799 984.616 429.612 987.089C446.78 991.906 478.982 995.104 478.982 1010.58C478.982 1031.54 433.065 1027.2 411.488 1016.01C407.569 1013.98 405.547 1011.7 400.73 1010.58C398.589 1014.63 390.331 1032.82 389.936 1037.56C416.822 1055.57 467.963 1061.1 495.767 1042.2C504.173 1036.49 514.062 1022.61 514.062 1009.23C514.062 950.406 427.714 973.263 427.714 943.113C427.714 923.547 465.061 927.386 479.166 932.141C484.796 934.038 492.461 938.62 497.871 939.065C498.494 931.612 505.32 920.659 507.316 912.082C495.04 908.804 494.6 899.938 447.95 899.938C422.207 899.938 392.634 916.271 392.634 941.768Z" fill="#E0E0E0"/>
<path fill-rule="evenodd" clip-rule="evenodd" d="M72.8638 1051.06H109.297C110.473 1046.01 114.546 1038.35 116.814 1032.94C119.744 1025.94 122.023 1020.96 124.909 1014.05L156.707 940.601C159.139 934.661 162.159 928.5 164.986 921.903C167.477 916.1 171.39 908.304 172.71 902.636H137.631L104.108 981.103C102.363 985.477 95.2076 1002.56 91.7532 1006.53C89.7468 997.919 64.9025 942.51 59.5494 929.449L48.578 902.636H9.45117L33.277 957.071C36.3214 963.915 38.7378 968.991 41.4511 975.88C44.5993 983.877 72.3802 1045.2 72.8638 1051.06Z" fill="#E0E0E0"/>
<path fill-rule="evenodd" clip-rule="evenodd" d="M257.699 1051.06H294.131L308.859 976.735C310.901 966.474 321.358 907.756 323.811 902.636H287.381L265.231 1014.06C262.686 1026.92 260.51 1038.99 257.699 1051.06Z" fill="#E0E0E0"/>
<path fill-rule="evenodd" clip-rule="evenodd" d="M5.38867 1145.5H16.1828V1110.42L26.2109 1126.03C32.5809 1136.63 31.3944 1138.75 40.4686 1138.75L58.0085 1109.07V1145.5H68.8027V1087.48H58.0085C56.9363 1092.08 50.3915 1102.22 47.644 1106.8L38.1402 1122.93C36.3033 1125.61 37.7657 1123.72 36.4202 1125.27L19.653 1096.16C14.1212 1086.71 16.7662 1087.48 5.38867 1087.48V1145.5Z" fill="#E0E0E0"/>
<path fill-rule="evenodd" clip-rule="evenodd" d="M110.629 1113.12H126.82C125.288 1119.7 121.759 1124.77 120.074 1132.01H117.375C116.477 1128.15 115.78 1126.55 114.301 1122.94C112.933 1119.61 111.925 1116.02 110.629 1113.12ZM114.678 1148.2C128.665 1148.2 124.887 1150.7 137.999 1120.26L151.104 1090.18H136.263C135.196 1094.76 133.428 1097.13 132.216 1102.32H105.232C104.016 1097.13 102.248 1094.76 101.185 1090.18H86.3438C87.1991 1093.86 90.7808 1101.61 92.6348 1105.48L106.008 1135.28C107.753 1139.49 109.983 1148.2 114.678 1148.2Z" fill="#E0E0E0"/>
<path fill-rule="evenodd" clip-rule="evenodd" d="M330.567 665.173H315.722V644.933C337.062 644.933 349.456 642.126 349.456 657.076C349.456 664.331 338.183 665.173 330.567 665.173ZM331.913 638.188H315.722V619.299H329.218C337.146 619.299 346.759 621.004 346.759 628.743C346.759 635.532 338.861 638.188 331.913 638.188ZM306.281 671.916C337.482 671.916 358.901 677.105 358.901 653.028C358.901 645.704 354.181 643.385 349.456 640.885C353.208 635.281 358.323 631.496 354.452 622.5C348.497 608.658 327.073 612.551 306.281 612.551V671.916Z" fill="#E0E0E0"/>
<path fill-rule="evenodd" clip-rule="evenodd" d="M474.928 1145.5H487.07C487.258 1137.05 490.93 1129.67 491.118 1121.22H520.802C518.923 1125.14 516.693 1139.98 515.404 1145.5H527.548C527.813 1133.63 538.075 1099.53 538.341 1087.49C524.686 1087.49 527.029 1086.45 524.725 1099.5C522.115 1114.3 528.783 1111.77 493.817 1111.77C494.009 1103.32 497.678 1095.94 497.864 1087.49H485.722C485.722 1099.59 476.098 1131.46 474.928 1145.5Z" fill="#E0E0E0"/>
<path fill-rule="evenodd" clip-rule="evenodd" d="M229.371 1145.5H273.896V1136.06H240.164V1121.22H268.498V1111.77H240.164V1096.93H272.546V1087.48H229.371V1145.5Z" fill="#E0E0E0"/>
<path fill-rule="evenodd" clip-rule="evenodd" d="M222.615 671.917H267.139V663.822H232.059V646.285C265.741 646.285 263.092 648.719 263.092 638.189H232.059V620.647H265.79V612.552H222.615V671.917Z" fill="#E0E0E0"/>
<path fill-rule="evenodd" clip-rule="evenodd" d="M403.424 1117.17C403.424 1141.28 413.112 1146.85 435.806 1146.85C444.503 1146.85 451.176 1142.66 454.694 1137.41C452.896 1134.73 452.237 1133.67 450.647 1130.66C445.066 1131.96 432.732 1143.43 419.876 1133.1C410.714 1125.75 414.723 1110.09 420.706 1103.42C431.445 1091.47 442.749 1095.23 453.345 1102.32C456.651 1100.11 459.187 1098.94 461.44 1095.57C448.828 1076.74 403.424 1086.17 403.424 1117.17Z" fill="#E0E0E0"/>
<path fill-rule="evenodd" clip-rule="evenodd" d="M313.019 1145.5H325.162C327.118 1137.08 333.905 1124.81 337.116 1116.98L349.447 1087.48H337.304L318.416 1130.66C316.725 1123.42 312.896 1116.34 309.946 1109.45C308.234 1105.45 307.169 1103.02 305.501 1099.05C303.649 1094.65 301.806 1091.49 300.872 1087.48H288.729C290.088 1093.32 292.139 1096.86 294.317 1102.14L313.019 1145.5Z" fill="#E0E0E0"/>
<path fill-rule="evenodd" clip-rule="evenodd" d="M472.232 671.917H481.678C481.97 658.89 486.027 653.312 496.519 646.284C499.765 648.66 503.131 654.838 505.696 658.699C509.093 663.805 513.065 668.201 514.058 671.917H524.851C518.881 660.63 510.504 652.02 504.614 640.885C506.698 637.776 508.631 635.884 511.929 633.359L535.646 612.551C527.485 612.551 524.669 611.409 519.766 615.562C509.694 624.079 497.669 636.492 487.073 643.585C487.909 633.557 492.471 623.109 492.471 612.551H483.026C483.026 625.486 472.51 659.438 472.232 671.917Z" fill="#E0E0E0"/>
<path fill-rule="evenodd" clip-rule="evenodd" d="M427.709 654.378C427.709 666.23 417.844 665.174 408.82 665.174C399.685 665.174 397.754 661.861 392.629 658.431L388.527 666.496C403.66 676.603 437.153 678.505 437.153 653.029C437.153 637.086 414.671 642.858 406.12 630.094C410.519 611.225 433.589 621.89 439.852 623.348C440.825 619.162 441.576 619.444 442.549 615.253C432.211 612.844 439.797 611.205 420.961 611.205C403.422 611.205 394.16 622.952 397.858 634.186C402.503 648.315 427.709 645.429 427.709 654.378Z" fill="#E0E0E0"/>
<path fill-rule="evenodd" clip-rule="evenodd" d="M26.9829 671.917H36.4262C44.5661 656.543 55.2763 627.933 63.4109 612.552H53.9675L31.0311 658.431C30.1021 654.443 28.2574 651.249 26.4139 646.856L10.7923 612.552H1.34766C2.98878 619.596 25.3116 664.747 26.9829 671.917Z" fill="#E0E0E0"/>
<path fill-rule="evenodd" clip-rule="evenodd" d="M167.299 1145.5H209.123V1136.06H178.092V1087.48H167.299V1145.5Z" fill="#E0E0E0"/>
<path fill-rule="evenodd" clip-rule="evenodd" d="M138.965 620.647H159.202V671.917H168.647V620.647C192.14 620.647 190.234 622.541 190.234 612.552H138.965V620.647Z" fill="#E0E0E0"/>
<path fill-rule="evenodd" clip-rule="evenodd" d="M368.336 1145.5H379.13V1087.48H368.336V1145.5Z" fill="#E0E0E0"/>
<path fill-rule="evenodd" clip-rule="evenodd" d="M94.4473 671.917H103.888V612.552H94.4473V671.917Z" fill="#E0E0E0"/>
</svg>
