<svg width="885" height="1433" viewBox="0 0 885 1433" fill="none" xmlns="http://www.w3.org/2000/svg">
<path fill-rule="evenodd" clip-rule="evenodd" d="M281.795 661.009C281.428 716.583 268.129 849.862 224.885 859.342C173.86 870.53 173.242 814.026 194.754 727.999C255.803 474.661 117.526 388.284 48.4747 419.258C15.0369 434.257 19.3267 471.622 32.5935 484.079C45.8593 496.535 80.3119 497.951 94.0759 477.856C132.756 570.022 116.267 673.699 49.9272 800.438C-16.4121 927.175 -16.8723 1108.18 49.9272 1232.47C129.618 1351.66 260.921 1433 442.5 1433C624.079 1433 760.701 1349.51 835.073 1232.47C901.872 1108.18 901.413 927.175 835.073 800.438C768.733 673.699 752.245 570.022 790.924 477.856C804.688 497.951 839.14 496.535 852.407 484.079C865.674 471.622 869.964 434.257 836.526 419.258C767.475 388.284 629.198 474.661 690.246 727.999C711.758 814.026 711.14 870.53 660.115 859.342C616.871 849.862 603.571 716.583 603.205 661.009L603.571 394.248C603.592 377.924 590.22 364.569 573.902 364.569C557.587 364.569 544.233 377.927 544.233 394.248V677.967C544.233 733.991 533.752 747.264 520.786 750.012C499.752 754.469 472.17 712.904 472.17 644.491V292.483C472.17 276.161 458.816 262.805 442.501 262.805C426.186 262.805 412.831 276.164 412.831 292.483V644.491C412.831 710.415 387.219 750.607 366.534 750.299C352.523 750.091 340.767 737.372 340.767 678.094V394.248C340.767 377.925 327.414 364.569 311.098 364.569C294.78 364.569 281.407 377.925 281.428 394.248L281.795 661.009Z" fill="#E0E0E0"/>
<path fill-rule="evenodd" clip-rule="evenodd" d="M181.402 816.252C161.071 850.553 137.054 912.574 115.89 960.947C115.888 960.953 115.884 960.958 115.884 960.958C74.9976 1062.83 119.691 1240.56 199.111 1372.51C253.52 1403.45 317.047 1423.91 389.591 1430.6C403.654 1383.42 493.068 1244.89 523.555 1205C674.821 1043.71 667.721 1028.25 655.68 857.895C615.954 840.616 603.559 714.632 603.204 661.005L603.571 394.243C603.591 377.921 590.22 364.564 573.902 364.564C557.583 364.564 544.232 377.924 544.232 394.243V678.19C544.232 735.543 533.248 748.472 519.859 750.234C498.952 752.984 472.169 712.126 472.169 644.713L472.17 292.483C472.17 276.16 458.82 262.805 442.501 262.805C426.183 262.805 412.831 276.164 412.831 292.483L412.831 644.717C412.831 711.526 386.527 752.049 365.705 750.325C352.062 749.196 340.767 736.426 340.767 678.32L340.767 394.248C340.767 377.925 327.418 364.569 311.098 364.569C294.78 364.569 281.407 377.925 281.428 394.248L281.795 661.009C281.428 716.583 268.129 849.862 224.885 859.342C194.767 865.945 182.212 848.966 181.402 816.252Z" fill="#E0E0E0"/>
<path fill-rule="evenodd" clip-rule="evenodd" d="M442.49 97.737C458.808 97.737 472.159 111.093 472.159 127.416V191.076C472.159 207.399 458.808 220.753 442.49 220.753C426.173 220.753 412.823 207.399 412.823 191.076V127.416C412.823 111.093 426.173 97.737 442.49 97.737Z" fill="#E0E0E0"/>
<path fill-rule="evenodd" clip-rule="evenodd" d="M440.654 0H444.327C459.636 0 472.159 12.5271 472.159 27.841C472.159 43.1549 459.636 55.6852 444.327 55.6852H440.654C425.345 55.6852 412.823 43.1581 412.823 27.8441C412.823 12.5302 425.345 0 440.654 0Z" fill="#E0E0E0"/>
<path fill-rule="evenodd" clip-rule="evenodd" d="M311.105 201.297C327.423 201.297 340.774 214.651 340.774 230.974V294.634C340.774 310.957 327.423 324.313 311.105 324.313C294.787 324.313 281.437 310.957 281.437 294.634V230.974C281.437 214.651 294.787 201.297 311.105 201.297Z" fill="#E0E0E0"/>
<path fill-rule="evenodd" clip-rule="evenodd" d="M309.268 103.558H312.942C328.251 103.558 340.774 116.085 340.774 131.399C340.774 146.713 328.251 159.243 312.942 159.243H309.268C293.959 159.243 281.437 146.716 281.437 131.403C281.437 116.089 293.959 103.558 309.268 103.558Z" fill="#E0E0E0"/>
<path fill-rule="evenodd" clip-rule="evenodd" d="M740.911 90.4854C747.193 104 735.9 120.575 745.487 124.431C756.603 128.904 768.712 102.784 778.886 109.112C783.547 112.011 771.246 135.594 778.647 140C793.043 148.57 818.067 125.236 815.349 136.876C806.955 172.813 741.227 219.178 702.775 217.589C664.324 215.999 731.633 70.5279 740.911 90.4854Z" fill="#E0E0E0"/>
<path fill-rule="evenodd" clip-rule="evenodd" d="M574.57 139.338C577.604 144.632 580.982 151.555 590.607 148.054C600.231 144.553 600.245 117.686 609.043 114.935C617.841 112.184 623.271 137.841 631.316 134.15C639.363 130.457 644.542 105.879 647.644 101.914C650.746 97.9483 654.728 96.1818 655.915 110.472C658.808 145.34 645.793 213.393 618.393 223.151C590.992 232.909 567.694 163.658 562.82 140.25C557.946 116.843 571.535 134.043 574.57 139.338Z" fill="#E0E0E0"/>
<path fill-rule="evenodd" clip-rule="evenodd" d="M495.508 234.254C500.472 227.732 485.966 211.765 490.863 205.743C495.76 199.721 514.786 211.317 519.82 204.57C524.853 197.822 515.648 183.108 516.15 178.661C518.305 159.555 578.928 242.066 567.325 256.425C553.728 273.247 478.239 260.829 469.08 244.006C461.835 230.697 490.546 240.776 495.508 234.254Z" fill="#E0E0E0"/>
<path fill-rule="evenodd" clip-rule="evenodd" d="M848.238 209.435C850.435 218.628 831.925 221.094 827.193 234.588C824.45 242.41 847.6 242.653 848.229 250.917C848.906 259.831 833.299 259.248 832.626 268.162C831.92 277.526 858.35 281.312 851.948 288.159C837.431 303.682 733.142 304.623 733.147 278.401C733.151 252.75 844.816 195.117 848.238 209.435Z" fill="#E0E0E0"/>
<path fill-rule="evenodd" clip-rule="evenodd" d="M799.677 341.559C804.073 350.05 779.81 347.276 774.446 355.189C770.838 360.511 781.805 369.43 777.531 374.232C771.146 381.405 756.57 375.679 749.986 382.669C744.637 388.35 755.386 406.917 747.643 405.964C730.288 403.83 686.761 347.99 698.475 329.478C710.382 310.662 791.677 326.1 799.677 341.559Z" fill="#E0E0E0"/>
<path fill-rule="evenodd" clip-rule="evenodd" d="M659.076 243.013C638.158 240.72 611.335 258.745 599.285 283.193C592.753 296.449 591.783 309.117 596.624 317.945C599.952 324.013 605.833 327.67 613.635 328.525C634.554 330.817 661.376 312.794 673.425 288.345C679.96 275.088 680.928 262.42 676.086 253.592C672.517 247.084 666.286 243.803 659.076 243.013ZM555.841 312.466C558.798 279.56 576.82 265.838 595.48 252.744C600.818 248.997 612.899 242.106 613.795 241.637C614.059 241.486 614.332 241.356 614.601 241.217C645.313 225.32 678.414 220.632 698.915 229.278C701.013 230.162 705.304 233.088 707.134 234.509C726.882 249.845 717.988 276.025 705.217 292.626C698.402 300.999 694.276 306.167 678.998 318.793C642.916 348.608 555.841 367.775 555.841 312.466Z" fill="#E0E0E0"/>
<path fill-rule="evenodd" clip-rule="evenodd" d="M113.442 608.407C142.864 562.14 156.987 499.469 149.034 443.053C117.115 414.56 76.5669 406.657 48.478 419.256C15.0403 434.256 19.33 471.62 32.5969 484.078C45.8637 496.534 80.3153 497.95 94.0803 477.855C111.25 518.767 117.549 561.947 113.442 608.407Z" fill="#E0E0E0"/>
<path fill-rule="evenodd" clip-rule="evenodd" d="M412.823 191.076C412.823 207.399 426.173 220.753 442.49 220.753C458.808 220.753 472.159 207.399 472.159 191.076V127.416C472.159 111.093 458.808 97.737 442.49 97.737C426.173 97.737 412.823 111.093 412.823 127.416V191.076Z" fill="#E0E0E0"/>
<path fill-rule="evenodd" clip-rule="evenodd" d="M562.82 140.25C567.694 163.658 590.992 232.909 618.393 223.151C645.793 213.393 658.808 145.34 655.915 110.472C654.728 96.1818 650.746 97.9483 647.644 101.914C645.658 104.454 642.818 115.448 638.92 123.996C636.568 145.628 631.906 166.052 621.861 178.83C598.651 208.355 585.43 172.77 577.452 144.078C576.365 142.558 575.453 140.878 574.57 139.338C571.535 134.043 557.946 116.843 562.82 140.25Z" fill="#E0E0E0"/>
<path fill-rule="evenodd" clip-rule="evenodd" d="M567.325 256.425C578.929 242.066 518.308 159.555 516.153 178.661C515.852 181.331 519.049 187.703 520.564 193.828C527.425 199.557 534.23 205.659 541.727 214.162C573.806 250.548 513.79 240.655 495.54 234.217C495.531 234.227 495.52 234.237 495.509 234.258C490.546 240.78 461.835 230.701 469.08 244.01C478.238 260.834 553.729 273.247 567.325 256.425Z" fill="#E0E0E0"/>
<path fill-rule="evenodd" clip-rule="evenodd" d="M740.849 90.3574C731.341 71.1603 664.407 216.002 702.775 217.589C741.227 219.178 806.955 172.813 815.349 136.876C817.002 129.798 808.398 135.652 798.162 139.4C778.236 160.227 756.329 181.526 743.88 185.818C686.526 205.591 717.943 123.162 740.849 90.3574Z" fill="#E0E0E0"/>
<path fill-rule="evenodd" clip-rule="evenodd" d="M848.238 209.435C844.816 195.117 733.151 252.75 733.147 278.401C733.142 304.623 837.431 303.682 851.948 288.159C852.762 287.286 853.046 286.464 852.919 285.674C824.534 290.467 795.003 292.926 780.439 286.53C740.208 268.867 799.162 238.398 839.754 220.789C844.945 217.162 849.377 214.204 848.238 209.435Z" fill="#E0E0E0"/>
<path fill-rule="evenodd" clip-rule="evenodd" d="M799.677 341.559C791.677 326.1 710.382 310.662 698.475 329.478C686.761 347.99 730.288 403.83 747.643 405.964C752.792 406.597 749.764 398.6 748.73 391.5C729.615 372.492 699.578 335.446 743.822 338.195C755.347 338.911 769.342 343.48 782.441 350.547C791.228 347.943 802.83 347.652 799.677 341.559Z" fill="#E0E0E0"/>
<path fill-rule="evenodd" clip-rule="evenodd" d="M705.217 292.626C717.988 276.025 726.883 249.846 707.135 234.511C705.306 233.089 701.013 230.162 698.916 229.28C678.415 220.633 645.315 225.322 614.602 241.219C608.455 244.386 601.092 248.807 595.48 252.744C576.82 265.838 558.798 279.56 555.841 312.466C555.841 339.674 576.922 348.877 602.614 347.621C629.15 346.326 660.612 333.874 678.998 318.793C694.879 305.766 698.401 300.999 705.217 292.626ZM676.086 253.592C680.928 262.42 679.96 275.088 673.425 288.345C661.376 312.794 634.554 330.817 613.635 328.525C605.833 327.67 599.953 324.014 596.625 317.947C591.784 309.118 592.753 296.45 599.285 283.193C611.335 258.745 638.158 240.72 659.076 243.013C666.286 243.803 672.517 247.084 676.086 253.592Z" fill="#E0E0E0"/>
<path fill-rule="evenodd" clip-rule="evenodd" d="M835.073 800.438C768.733 673.699 752.245 570.022 790.924 477.856C804.688 497.951 839.14 496.535 852.407 484.079C865.674 471.622 869.964 434.257 836.526 419.258C795.095 400.674 724.723 438.471 701.907 515.548C685.846 570.906 660.056 729.226 798.109 913.734C829.641 955.877 855.857 998.846 884.593 1038.5C887.875 955.013 871.294 869.635 835.073 800.438Z" fill="#E0E0E0"/>
<path fill-rule="evenodd" clip-rule="evenodd" d="M71.033 448.367C89.8921 443.896 100.457 462.579 94.1356 477.989C100.417 492.98 105.24 508.275 108.627 523.924C115.559 509.583 119.079 490.44 115.984 472.189C110.218 438.171 71.2209 427.799 58.892 446.989C49.6951 461.302 63.6235 450.123 71.033 448.367Z" fill="#E0E0E0"/>
<path fill-rule="evenodd" clip-rule="evenodd" d="M115.881 960.961C99.2268 999.025 84.339 1042.58 74.4004 1093.41C63.9277 1146.98 58.3025 1197.08 57.9142 1244.05C94.8333 1295.9 141.936 1339.99 199.109 1372.51C119.688 1240.56 74.9952 1062.83 115.881 960.961Z" fill="#E0E0E0"/>
<path fill-rule="evenodd" clip-rule="evenodd" d="M776.38 463.087C754.156 500.756 750.595 526.668 760.97 576.942C763.582 589.595 767.528 601.719 772.732 613.118C770.918 566.698 778.537 523.134 795.961 481.616C786.325 466.984 793.754 433.639 776.38 463.087Z" fill="#E0E0E0"/>
<path fill-rule="evenodd" clip-rule="evenodd" d="M706.755 365.541C702.538 350.946 705.284 330.529 719.863 321.102C709.637 321.918 701.626 324.498 698.475 329.478C693.587 337.203 698.319 351.431 706.755 365.541Z" fill="#E0E0E0"/>
<path fill-rule="evenodd" clip-rule="evenodd" d="M733.147 278.401C733.145 286.951 744.23 292.611 759.677 295.822C748.24 284.336 747.58 262.778 757.753 249.191C743.385 259.936 733.148 270.635 733.147 278.401Z" fill="#E0E0E0"/>
<path fill-rule="evenodd" clip-rule="evenodd" d="M693.63 178.956C688.875 200.259 689.849 217.055 702.775 217.589C708.429 217.822 714.675 217.019 721.24 215.363C718.343 215.281 715.752 214.427 713.743 212.517C702.688 201.996 696.747 189.916 693.63 178.956Z" fill="#E0E0E0"/>
<path fill-rule="evenodd" clip-rule="evenodd" d="M618.383 223.149C630.526 218.824 639.844 203.049 646.204 183.786C614.562 220.671 598.121 208.587 581.515 192.901C591.461 212.505 604.387 228.133 618.383 223.149Z" fill="#E0E0E0"/>
<path fill-rule="evenodd" clip-rule="evenodd" d="M567.325 256.425C569.947 253.182 568.88 246.458 565.636 238.215C532.05 261.724 488.124 238.837 475.465 236.609C474.3 236.65 473.212 236.732 472.246 236.891C468.454 237.516 466.518 239.299 469.08 244.006C478.238 260.831 553.729 273.247 567.325 256.425Z" fill="#E0E0E0"/>
<path fill-rule="evenodd" clip-rule="evenodd" d="M594.203 253.645C576.005 266.477 558.731 280.311 555.841 312.466C555.841 339.396 576.891 348.979 602.614 347.621C584.131 320.856 586.551 276.239 594.203 253.645Z" fill="#E0E0E0"/>
<path fill-rule="evenodd" clip-rule="evenodd" d="M444.327 55.6852C459.636 55.6852 472.159 43.1549 472.159 27.841C472.159 20.6809 469.421 14.1319 464.941 9.18519C463.84 12.2104 462.288 15.2909 460.19 18.4538C437.231 53.0357 419.29 26.4145 422.426 6.84643C416.55 11.9607 412.823 19.489 412.823 27.8441C412.823 43.1581 425.345 55.6852 440.654 55.6852H444.327Z" fill="#E0E0E0"/>
<path fill-rule="evenodd" clip-rule="evenodd" d="M312.942 159.243C328.251 159.243 340.775 146.716 340.775 131.402C340.775 118.563 331.971 107.682 320.105 104.501C338.288 142.379 289.894 148.907 288.152 121.129C287.966 118.15 288.023 115.51 288.293 113.153C284.028 118.048 281.437 124.438 281.437 131.403C281.437 146.716 293.961 159.244 309.27 159.244L312.942 159.243Z" fill="#E0E0E0"/>
</svg>
