<svg width="1431" height="1931" viewBox="0 0 1431 1931" fill="none" xmlns="http://www.w3.org/2000/svg">
<path d="M772.2 1719.62L477.757 923.549C477.757 923.549 541.009 1007.26 680.219 901.049C819.429 794.835 884.491 597.648 798.542 530.23C704.11 456.151 533.037 594.062 491.72 648.155C450.511 702.232 366.17 806.729 408.194 913.006C438.378 989.458 753.077 1853.9 753.077 1853.9C753.077 1853.9 1093.65 1605.47 847.261 1257.17C894.925 1403.23 936.898 1563.01 772.2 1719.62ZM505.467 756.202C525.584 665.655 610.082 562.787 684.363 596.713C727.776 616.617 741.25 692.06 712.596 768.895C676.265 866.843 592.754 913.847 546.736 890.84C509.261 872.167 496.159 798.319 505.467 756.202Z" fill="#E0E0E0"/>
<path d="M178.825 570.963C257.43 572.744 413.475 700.363 405.691 734.288C396.116 776.118 220.47 849.15 102.964 812.607C102.964 812.607 162.325 783.129 165.656 755.008C169.3 723.416 118.485 700.754 150.534 680.277C179.32 662.1 236.881 664.023 178.825 570.963Z" fill="#E0E0E0"/>
<path d="M248.405 411.42C302.235 492.157 431.057 621.924 498.433 592.897C580.841 557.324 508.699 280.829 478.693 224.973C478.693 224.973 468.981 339.293 421.224 324.512C385.661 313.468 358.068 265.6 346.961 393.605C344.528 420.476 248.405 411.42 248.405 411.42Z" fill="#E0E0E0"/>
<path d="M697.204 73.6581C639.89 203.063 654.438 462.641 697.702 491.725C722.871 508.666 923.662 331.357 966.666 104.587C966.666 104.587 874.62 192.369 860.048 139.829C845.477 87.2883 846.698 58.41 777.274 144.908C744.33 186.158 697.204 73.6581 697.204 73.6581Z" fill="#E0E0E0"/>
<path d="M1135.82 296.679C1036.66 345.808 862.378 534.763 875.623 615.537C883.32 662.476 1169.43 589.089 1228.47 511.242C1165.05 510.611 1150.25 492.302 1158.79 467.738C1173.11 426.565 1232.28 387.853 1128.56 391.625C1079.75 393.341 1131.95 310.108 1135.82 296.679Z" fill="#E0E0E0"/>
<path d="M1137.03 700.29C1101.95 697.55 878.308 703.227 832.942 772.986C798.5 825.952 985.583 936.349 1057.44 946.737C1057.44 946.737 1016.63 875.447 1052.84 856.824C1096.49 834.445 1140.91 832.235 1081.97 776.823C1061.51 757.676 1137.03 700.29 1137.03 700.29Z" fill="#E0E0E0"/>
</svg>
