<svg width="847" height="1504" viewBox="0 0 847 1504" fill="none" xmlns="http://www.w3.org/2000/svg">
<path fill-rule="evenodd" clip-rule="evenodd" d="M781.012 1112.56C779.231 1119.28 776.101 1128.47 773.567 1135.09L753.918 1178.02C751.916 1181.46 750.599 1184.64 748.446 1188.19C732.198 1215.04 711.359 1246.18 689.411 1268.94L666.431 1291.87C640.357 1318.04 578.185 1357.06 544.683 1372.55C530.352 1379.18 516.473 1385.62 502.094 1391.54C473.613 1403.25 438.244 1414.91 408.684 1422.33C381.1 1429.26 360.198 1433.52 331.574 1438.12C322.102 1439.65 313.617 1440.5 304.032 1441.89C286.492 1444.45 264.977 1445.33 246.361 1446.87C233.686 1447.91 181.946 1447.28 169.589 1445.44C160.679 1444.11 131.382 1443 127.904 1440.67C115.47 1440.67 89.5768 1434.98 76.2957 1432.25L28.1927 1419.82C31.5188 1405.56 61.3227 1373.72 72.3083 1362.75C85.6699 1349.39 103.155 1338.83 105.249 1319.46C106.969 1303.57 89.8547 1292.64 89.7961 1284.33C89.7688 1281.09 94.9366 1268.12 96.4088 1264.84C111.528 1231.17 128.564 1192.28 144.798 1159.91L233.543 968.097C236.51 961.705 238.512 956.322 241.542 950.019C243.084 946.821 243.93 944.201 245.359 941.315C246.801 938.391 248.184 935.829 249.404 932.85L264.912 897.25C267.265 891.787 272.18 883.455 272.52 877.814C273.682 877.382 273.377 877.773 274.641 875.728L311.18 791.247C316.57 778.921 315.531 781.251 335.616 772.902L356.953 762.933C359.398 761.672 361.454 760.897 364.067 759.612C380.059 751.75 435.628 719.405 441.49 709.907C447.549 706.265 452.004 701.149 457.071 696.096C460.188 692.983 469.061 683.283 471.947 681.756C473.52 677.902 477.488 673.677 480.154 670.151C489.072 658.358 494.482 648.146 500.445 634.118C512.303 606.226 511.585 570.61 493.887 544.149C473.879 514.226 449.918 510.801 413.84 510.801C399.141 511.869 386.644 514.774 374.175 518.474C366.66 520.696 363.012 521.842 356.354 524.658C350.72 527.034 343.189 528.517 340.388 532.695C354.661 531.507 372.347 528.574 376.018 542.032C378.627 551.587 368.345 568.369 365.447 576.82C363.874 580.975 362.463 584.132 360.675 588.387C358.703 593.081 357.045 595.76 356.049 600.902C354.217 602.344 346.014 623.378 344.921 625.828L323.324 677.233C321.234 681.933 319.561 685.516 317.81 690.493C316.802 693.364 313.757 701.412 312.195 702.619C307.968 716.434 275.009 791.321 267.141 810.868L240.15 875.665L97.3931 1214.74C77.5715 1260.93 57.0451 1313.48 37.2345 1357.96L14.3283 1412.23C11.6074 1418.56 0.104962 1444.24 0 1449.01C4.43978 1449.38 8.04145 1451.23 11.9251 1452.74L48.1574 1464.52C78.8773 1474 94.8902 1476.68 123.619 1484.04C140.794 1488.43 160.698 1490.54 177.406 1493.92C186.285 1495.72 197.201 1496.37 206.367 1498L264.223 1503.16C292.725 1505.51 359.299 1502.42 388.329 1500C443.202 1495.41 493.33 1482.23 544.645 1465.29C552.987 1462.54 559.356 1459.76 567.265 1456.6C575.136 1453.46 582.829 1450.45 589.95 1446.94L621.254 1431.28C625.326 1429.26 628.004 1427.77 632.034 1425.36L689.129 1387.5C692.225 1385.19 694.659 1383.23 697.935 1380.66C716.587 1366.01 728.148 1354.09 744.536 1339.62L745.614 1338.61C745.772 1338.46 745.985 1338.24 746.14 1338.09L752.214 1331.64C753.874 1329.62 754.424 1329.05 756.206 1327.29C761.87 1321.69 766.549 1316.57 771.867 1310.61L799.181 1274.29C801.542 1270.75 803.177 1268.5 805.364 1264.83C807.632 1261.03 808.784 1258.69 810.959 1254.78C830.557 1219.55 845.747 1176.56 845.747 1129.68C849.974 1114.4 842.396 1053.52 839.418 1039.39C836.577 1025.9 833.247 1011.78 829.174 999.581L814.422 964.775C812.767 961.523 811.438 958.988 809.576 955.558C803.586 944.56 788.137 921.211 780.228 912.925L766.677 897.27C726.935 856.048 690.188 832.153 649.774 798.195C631.006 782.424 581.323 747.688 604.005 724.502C620.925 708.174 636.899 703.152 658.152 692.535C665.264 688.982 671.153 685.306 678.681 682.805C680.161 680.02 706.846 668.454 712.097 664.094C719.312 662.238 763.049 634.007 769.834 628.903C780.112 621.164 798.386 607.17 806.511 596.723C808.2 594.555 808.814 594.232 810.492 592.356C818.127 583.823 823.961 574.294 829.058 563.982C831.593 558.851 836.219 546.691 836.354 539.412C838.336 533.165 837.741 513.698 835.758 506.183L834.262 502.484C833.931 498.478 832.605 495.786 831.964 492.036C827.191 484.289 824.494 473.738 814.007 458.052C810.406 452.67 807.284 447.473 803.173 442.805C798.811 437.856 795.696 433.608 790.719 429.491C789.348 426.173 790.283 428.083 787.941 425.677C785.68 423.354 786.098 424.083 783.996 422.339C780.746 419.642 780.131 417.84 776.252 415.939C775.401 413.563 770.142 409.86 767.897 408.18C764.47 405.612 761.564 402.864 758.04 401.684C755.019 396.66 727.143 381.746 721.842 379.104C688.933 362.715 647.996 349.93 610.968 343.857C604.125 342.736 592.509 341.62 586.125 339.838C574.684 339.838 560.847 337.01 549.247 336.678C535.831 336.293 524.788 335.667 510.584 335.667L539.074 272.379C541.496 266.762 543.583 261.589 546.083 256.442C547.404 253.722 548.141 251.477 549.556 248.445L566.964 209.526L590.631 157.063C592.749 152.657 594.588 148.595 596.5 144.154L625.786 78.5313C629.932 69.6346 633.429 61.7574 637.617 52.8144C641.81 43.8565 645.095 35.7623 649.156 26.8084C651.223 22.256 652.838 18.4359 655.022 13.8997L660.938 0C657.924 2.01289 652.931 8.93084 650.188 12.2026C642.008 21.9554 624.666 37.0899 614.101 44.9795C600.19 55.3651 600.218 54.7278 585.553 62.3398C581.458 64.4657 580.805 69.5461 577.431 77.1649C575.047 82.5666 573.32 87.8172 570.784 93.4653C568.227 99.1623 566.608 104.009 564.127 109.75L530.131 190.479C525.363 201.575 520.831 211.616 516.538 223.087C514.39 227.364 512.686 232.303 510.584 236.635L468.516 335.363C465.437 340.023 452.635 339.271 440.683 340.938C432.24 342.118 423.326 343.6 415.428 344.911C383.453 350.224 354.619 358.992 325.314 370.659C317.424 373.799 290.569 386.245 287.138 390.916L366.327 371.993C383.935 369.513 399.87 366.458 418.669 364.83C424.125 364.355 431.463 363.491 436.599 362.923L455.235 361.724C467.665 361.056 482.248 361.731 494.919 361.728C518.96 361.728 546.848 364.671 565.492 370.072C569.78 370.905 576.654 372.861 580.673 374.104C584.75 375.361 590.631 377.992 594.672 378.41C599.874 381.175 604.797 381.92 610.38 384.057C614.074 385.474 622.509 389.473 625.542 389.879C632.517 392.915 638.225 395.168 644.233 398.216C647.17 399.709 650.3 400.904 653.415 402.598C664.948 408.882 676.05 414.362 687.259 421.972C691.479 424.836 691.296 425.7 696.433 427.401C696.599 430.047 699.287 430.356 703.984 434.465C711.17 440.765 723.864 451.91 728.805 460.443L729.849 461.439C737.905 476.191 743.253 483.262 745.386 502.61C745.738 505.785 745.291 516.422 743.423 518.119C741.888 544.149 713.472 566.933 710.011 575.428C707.507 575.496 689.937 592.202 686.795 594.995L611.867 653.616L592.181 670.448C584.94 676.266 570.024 691.204 564.382 698.916C561.627 702.681 562.578 700.057 561.743 704.691C558.918 704.759 562.431 703.43 559.997 705.243C554.359 709.44 545.256 734.555 549.158 749.582C552.219 761.379 558.927 769.99 566.532 778.099C566.682 778.258 566.89 778.481 567.041 778.635C567.191 778.79 567.404 779.009 567.555 779.164L574 785.235C576.555 787.639 579.127 789.561 582.025 791.822C585.319 794.4 587.729 796.119 591.18 798.314C597.404 802.284 603.386 806.219 610.125 809.634L629.813 820.208C633.39 822.38 636.551 823.668 640.009 825.666L659.207 836.727C673.87 844.682 691.669 857.279 704.942 867.171C736.483 890.657 750.405 909.238 768.687 941.127C770.654 944.561 771.932 948.356 773.706 951.823C779.919 964.289 786.561 990.982 788.238 1006.05C791.936 1039.23 791.751 1070.63 783.687 1102.45C782.728 1106.22 781.793 1108.81 781.012 1112.56Z" fill="#E0E0E0"/>
</svg>
